<svg t="1741348465773" viewBox="0 0 1024 1024" version="1.1" xmlns="http://www.w3.org/2000/svg" p-id="2587">
	<path d="M512 128C170.666667 128 0 513.770667 0 513.770667S170.666667 896 512 896s512-384 512-384-170.666667-384-512-384z m0 682.666667C286.442667 810.666667 144.032 598.592 96.032 513.578667 144 427.754667 286.442667 213.333333 512 213.333333c225.6 0 368.021333 213.312 415.978667 298.666667C879.936 597.504 737.546667 810.666667 512 810.666667z m0-469.333334c-94.250667 0-170.666667 76.416-170.666667 170.666667 0 94.261333 76.416 170.666667 170.666667 170.666667 94.261333 0 170.666667-76.405333 170.666667-170.666667 0-94.250667-76.405333-170.666667-170.666667-170.666667z m0 256c-47.050667 0-85.333333-38.282667-85.333333-85.333333s38.282667-85.333333 85.333333-85.333333 85.333333 38.282667 85.333333 85.333333-38.282667 85.333333-85.333333 85.333333z" p-id="2588"></path>
	<path d="M512 128C170.666667 128 0 513.770667 0 513.770667S170.666667 896 512 896s512-384 512-384-170.666667-384-512-384z m0 682.666667C286.442667 810.666667 144.032 598.592 96.032 513.578667 144 427.754667 286.442667 213.333333 512 213.333333c225.6 0 368.021333 213.312 415.978667 298.666667C879.936 597.504 737.546667 810.666667 512 810.666667z m0-469.333334c-94.250667 0-170.666667 76.416-170.666667 170.666667 0 94.261333 76.416 170.666667 170.666667 170.666667 94.261333 0 170.666667-76.405333 170.666667-170.666667 0-94.250667-76.405333-170.666667-170.666667-170.666667z m0 256c-47.050667 0-85.333333-38.282667-85.333333-85.333333s38.282667-85.333333 85.333333-85.333333 85.333333 38.282667 85.333333 85.333333-38.282667 85.333333-85.333333 85.333333z" p-id="2589"></path>
</svg>