<svg xmlns="http://www.w3.org/2000/svg" viewBox="0 0 20 20">
	<path fill-rule="evenodd" clip-rule="evenodd" d="M5.24287 18.3845C4.89724 18.5507 4.48229 18.4053 4.31605 18.0596C4.26029 17.9437 4.23783 17.8146 4.25117 17.6866L4.75725 12.8332C4.77762 12.6379 4.71431 12.443 4.583 12.297L1.29207 8.63594C1.03567 8.35071 1.05905 7.91164 1.34428 7.65524C1.43464 7.574 1.54475 7.5179 1.66358 7.49254L6.47789 6.46509C6.66998 6.42409 6.83572 6.30367 6.93407 6.13365L9.39894 1.87248C9.59098 1.54049 10.0158 1.42704 10.3478 1.61907C10.453 1.67992 10.5403 1.76729 10.6012 1.87248L13.0661 6.13365C13.1644 6.30367 13.3301 6.42409 13.5222 6.46509L18.3365 7.49254C18.7116 7.57259 18.9508 7.94155 18.8707 8.31664C18.8454 8.43547 18.7893 8.54557 18.708 8.63594L15.4171 12.297C15.2858 12.443 15.2225 12.6379 15.2429 12.8332L15.7489 17.6866C15.7887 18.0681 15.5117 18.4096 15.1303 18.4493C15.0023 18.4627 14.8732 18.4402 14.7572 18.3845L10.3011 16.2412C10.1108 16.1497 9.8893 16.1497 9.69906 16.2412L5.24287 18.3845Z"/>
</svg>