<svg t="1741333367589" viewBox="0 0 1080 1024" version="1.1" xmlns="http://www.w3.org/2000/svg" p-id="17228">
	<path d="M523.637 512 523.637 197.904c0-19.589-15.629-34.995-34.91-34.995-19.414 0-34.908 15.668-34.908 34.995l0 348.919c0 19.589 15.629 34.995 34.908 34.995 1.956 0 3.871-0.159 5.735-0.465 1.854 0.306 3.757 0.465 5.698 0.465l233.134 0c19.285 0 34.705-15.63 34.705-34.909C768 527.495 752.461 512 733.295 512L523.637 512zM512 1024C229.23 1024 0 794.77 0 512S229.23 0 512 0c282.769 0 512 229.23 512 512S794.77 1024 512 1024zM512 954.182c244.21 0 442.181-197.972 442.181-442.182 0-244.21-197.971-442.182-442.181-442.182S69.818 267.79 69.818 512C69.818 756.21 267.79 954.182 512 954.182z" p-id="17229"></path>
</svg>