<svg t="1741331905462" viewBox="0 0 1024 1024" version="1.1" xmlns="http://www.w3.org/2000/svg" p-id="7742">
	<path d="M955.904 858.112z" p-id="7743"></path>
	<path d="M312.832 63.488H75.264C33.792 63.488 0 97.28 0 138.752v237.568c0 41.472 33.792 75.264 75.264 75.264h237.568c41.472 0 75.264-33.792 75.264-75.264V138.752c0-41.472-33.792-75.264-75.264-75.264zM305.152 368.64H82.944V146.432h222.72V368.64zM312.832 572.416H75.264c-41.472 0-75.264 33.792-75.264 75.264v237.568c0 41.472 33.792 75.264 75.264 75.264h237.568c41.472 0 75.264-33.792 75.264-75.264v-237.568c0-41.472-33.792-75.264-75.264-75.264z m-7.68 305.152H82.944v-222.72h222.72v222.72zM518.144 169.984c2.048 1.024 4.608 1.536 6.656 1.536H982.528c2.048 0 4.096-0.512 6.144-1.024 18.944-4.096 32.768-20.48 32.768-39.936 0-18.944-13.312-35.328-31.744-39.936-2.048-1.024-4.608-1.536-7.168-1.536h-457.728c-2.56 0-5.12 0.512-7.168 2.048-17.92 4.608-31.232 20.992-31.232 39.424 0 18.432 13.312 35.328 31.744 39.424zM516.608 398.336c2.56 1.536 5.12 2.048 7.68 2.048h457.728c2.56 0 4.608-0.512 7.168-1.536 18.432-4.608 31.744-20.992 31.744-39.936 0-19.456-13.824-35.84-32.768-39.936-2.048-0.512-4.096-1.024-6.144-1.024H524.288c-2.048 0-4.608 0.512-6.656 1.536-18.432 4.608-31.744 20.992-31.744 39.936 0.512 17.92 13.312 34.304 30.72 38.912zM517.12 704c2.56 1.536 5.12 2.048 7.68 2.048h457.728c1.024 0 2.048 0 3.072-0.512 21.504-1.536 38.4-19.456 38.4-40.96 0-22.528-18.432-41.472-41.472-41.472H524.8c-2.048 0-4.608 0.512-6.656 1.536-18.432 4.608-31.744 20.992-31.744 39.936 0 18.432 12.8 34.304 30.72 39.424zM986.624 827.392c-1.536-0.512-2.56-0.512-4.096-0.512h-457.728c-2.56 0-5.12 0.512-7.68 2.048-17.92 4.608-30.72 20.992-30.72 39.424 0 18.944 13.312 35.328 32.256 39.936 2.048 1.024 4.096 1.024 6.144 1.024h454.656c1.024 0 2.048 0.512 3.072 0.512 22.528 0 41.472-18.432 41.472-41.472 0-20.992-16.384-38.912-37.376-40.96z" p-id="7744"></path>
</svg>