<?xml version="1.0" standalone="no"?><!DOCTYPE svg PUBLIC "-//W3C//DTD SVG 1.1//EN" "http://www.w3.org/Graphics/SVG/1.1/DTD/svg11.dtd"><svg t="1742869558611" viewBox="0 0 1024 1024" version="1.1" xmlns="http://www.w3.org/2000/svg" p-id="3011" xmlns:xlink="http://www.w3.org/1999/xlink"><path d="M800.64 128h-576A95.36 95.36 0 0 0 128 223.36v444.16a96 96 0 0 0 96 96h198.4V832h-64a33.28 33.28 0 0 0-32 32 32 32 0 0 0 32 32h301.44a32 32 0 0 0 32-32 33.28 33.28 0 0 0-32-32h-57.6v-67.84h198.4a96 96 0 0 0 96-96V224a96 96 0 0 0-96-96z m32 540.16a32 32 0 0 1-32 32h-576a32 32 0 0 1-32-32V224a32 32 0 0 1 32-32h576a32 32 0 0 1 32 32z" p-id="3012"></path><path d="M309.76 263.68a32 32 0 0 0-32 32v275.2a33.28 33.28 0 0 0 32 32 32 32 0 0 0 32-32v-275.2a32 32 0 0 0-32-32zM448 347.52a32 32 0 0 0-32 32v192a33.28 33.28 0 0 0 32 32 32 32 0 0 0 32-32v-192a32 32 0 0 0-32-32z m285.44 117.12a32 32 0 0 0-32 32v74.24a32 32 0 0 0 32 32 32.64 32.64 0 0 0 32-32V496.64a32 32 0 0 0-32.64-32z m-140.16-58.88a32 32 0 0 0-32 32v133.12a32 32 0 0 0 32 32 32 32 0 0 0 32-32V437.76a32 32 0 0 0-32-32z" p-id="3013"></path></svg>