<svg t="1742626905837" viewBox="0 0 1024 1024" version="1.1" xmlns="http://www.w3.org/2000/svg" p-id="2624">
	<path d="M512 34.133333a238.933333 238.933333 0 0 0-238.933333 238.933334v68.266666a238.933333 238.933333 0 1 0 477.866666 0V273.066667a238.933333 238.933333 0 0 0-238.933333-238.933334z m-170.666667 238.933334a170.666667 170.666667 0 0 1 341.333334 0v68.266666a170.666667 170.666667 0 0 1-341.333334 0V273.066667zM238.933333 614.4a204.8 204.8 0 0 0-204.8 204.8v34.133333a102.4 102.4 0 0 0 102.4 102.4h750.933334a102.4 102.4 0 0 0 102.4-102.4v-34.133333a204.8 204.8 0 0 0-204.8-204.8H238.933333z m-136.533333 204.8a136.533333 136.533333 0 0 1 136.533333-136.533333h546.133334a136.533333 136.533333 0 0 1 136.533333 136.533333v34.133333a34.133333 34.133333 0 0 1-34.133333 34.133334H136.533333a34.133333 34.133333 0 0 1-34.133333-34.133334v-34.133333z" p-id="2625"></path>
</svg>