<svg t="1741332391116" viewBox="0 0 1024 1024" version="1.1" xmlns="http://www.w3.org/2000/svg" p-id="12388" id="mx_n_1741332391116">
	<path d="M409.6 473.6h-18.176a12.8 12.8 0 0 1 0-25.6H409.6a37.888 37.888 0 0 0 34.816-22.528 12.8 12.8 0 0 1 17.152-6.144 12.544 12.544 0 0 1 6.144 16.896A63.488 63.488 0 0 1 409.6 473.6z m-94.976 0h-76.8a12.8 12.8 0 0 1 0-25.6h76.8a12.8 12.8 0 0 1 0 25.6z m-153.6 0h-76.8a12.8 12.8 0 1 1 0-25.6h76.8a12.8 12.8 0 0 1 0 25.6zM25.6 433.152a12.288 12.288 0 0 1-12.288-9.984A59.648 59.648 0 0 1 12.8 409.6v-65.792a12.8 12.8 0 0 1 25.6 0V409.6a44.288 44.288 0 0 0 0 8.192 12.544 12.544 0 0 1-9.728 15.104z m435.2-65.536a12.8 12.8 0 0 1-12.8-12.8v-76.8a12.8 12.8 0 0 1 25.6 0v76.8a12.8 12.8 0 0 1-12.8 12.8zM25.6 279.808a12.8 12.8 0 0 1-12.8-12.8v-76.8a12.8 12.8 0 0 1 25.6 0v76.8a12.8 12.8 0 0 1-12.8 12.8z m435.2-65.792a12.8 12.8 0 0 1-12.8-12.8v-76.8a12.8 12.8 0 1 1 25.6 0v76.8a12.8 12.8 0 0 1-12.8 12.8zM25.6 126.208a12.8 12.8 0 0 1-12.8-12.8V76.8a64.256 64.256 0 0 1 18.688-45.312 13.056 13.056 0 0 1 18.176 0 13.056 13.056 0 0 1 0 18.176A38.4 38.4 0 0 0 38.4 76.8v36.608a12.8 12.8 0 0 1-12.8 12.8z m427.008-64.256a13.056 13.056 0 0 1-10.752-5.888A38.4 38.4 0 0 0 409.6 38.4h-25.6a12.8 12.8 0 0 1 0-25.6h25.6a63.744 63.744 0 0 1 53.76 29.44 12.544 12.544 0 0 1-3.84 17.664 12.8 12.8 0 0 1-6.912 2.048zM307.2 38.4H230.4a12.8 12.8 0 0 1 0-25.6h76.8a12.8 12.8 0 0 1 0 25.6z m-153.6 0H76.8a12.8 12.8 0 0 1 0-25.6h76.8a12.8 12.8 0 0 1 0 25.6zM947.2 1011.2h-18.176a12.8 12.8 0 1 1 0-25.6H947.2a38.4 38.4 0 0 0 35.072-22.528 12.544 12.544 0 0 1 16.896-6.144 12.8 12.8 0 0 1 6.4 16.896A64.256 64.256 0 0 1 947.2 1011.2z m-94.976 0h-76.8a12.8 12.8 0 1 1 0-25.6h76.8a12.8 12.8 0 0 1 0 25.6z m-153.6 0h-76.8a12.8 12.8 0 0 1 0-25.6h76.8a12.8 12.8 0 0 1 0 25.6zM563.2 970.752a12.544 12.544 0 0 1-12.288-9.984 59.648 59.648 0 0 1-0.512-13.568v-65.792a12.8 12.8 0 0 1 25.6 0V947.2a28.672 28.672 0 0 0 0 8.192 12.8 12.8 0 0 1-9.984 15.104z m435.2-65.536a12.8 12.8 0 0 1-12.8-12.8v-76.8a12.8 12.8 0 0 1 25.6 0v76.8a12.8 12.8 0 0 1-12.8 12.8z m-435.2-87.808a12.8 12.8 0 0 1-12.8-12.8v-76.8a12.8 12.8 0 0 1 25.6 0v76.8a12.8 12.8 0 0 1-12.8 12.8z m435.2-65.792a12.8 12.8 0 0 1-12.8-12.8v-76.8a12.8 12.8 0 0 1 25.6 0v76.8a12.8 12.8 0 0 1-12.8 12.8z m-435.2-87.808a12.8 12.8 0 0 1-12.8-12.8V614.4a63.744 63.744 0 0 1 18.688-45.312 12.8 12.8 0 0 1 18.176 18.176A38.4 38.4 0 0 0 576 614.4v36.608a12.8 12.8 0 0 1-12.8 12.8z m427.008-64.256a13.056 13.056 0 0 1-10.752-5.888A38.4 38.4 0 0 0 947.2 576h-25.6a12.8 12.8 0 0 1 0-25.6h25.6a63.744 63.744 0 0 1 53.76 29.44 12.544 12.544 0 0 1-3.84 17.664 12.8 12.8 0 0 1-6.912 2.048zM844.8 576h-76.8a12.8 12.8 0 0 1 0-25.6h76.8a12.8 12.8 0 0 1 0 25.6z m-153.6 0h-76.8a12.8 12.8 0 0 1 0-25.6h76.8a12.8 12.8 0 0 1 0 25.6z" p-id="12389"></path>
	<path d="M563.2 25.6m51.2 0l332.8 0q51.2 0 51.2 51.2l0 332.8q0 51.2-51.2 51.2l-332.8 0q-51.2 0-51.2-51.2l0-332.8q0-51.2 51.2-51.2Z" fill-opacity=".5" p-id="12390"></path>
	<path d="M947.2 473.6H614.4a64 64 0 0 1-64-64V76.8A64 64 0 0 1 614.4 12.8h332.8A64 64 0 0 1 1011.2 76.8v332.8a64 64 0 0 1-64 64z m-332.8-435.2A38.4 38.4 0 0 0 576 76.8v332.8a38.4 38.4 0 0 0 38.4 38.4h332.8a38.4 38.4 0 0 0 38.4-38.4V76.8A38.4 38.4 0 0 0 947.2 38.4z" p-id="12391"></path>
	<path d="M25.6 563.2m51.2 0l332.8 0q51.2 0 51.2 51.2l0 332.8q0 51.2-51.2 51.2l-332.8 0q-51.2 0-51.2-51.2l0-332.8q0-51.2 51.2-51.2Z" fill-opacity=".5" p-id="12392"></path>
	<path d="M409.6 1011.2H76.8A64 64 0 0 1 12.8 947.2V614.4A64 64 0 0 1 76.8 550.4h332.8a64 64 0 0 1 64 64v332.8a64 64 0 0 1-64 64z m-332.8-435.2A38.4 38.4 0 0 0 38.4 614.4v332.8A38.4 38.4 0 0 0 76.8 985.6h332.8a38.4 38.4 0 0 0 38.4-38.4V614.4a38.4 38.4 0 0 0-38.4-38.4z" p-id="12393"></path>
</svg>