<?xml version="1.0" standalone="no"?><!DOCTYPE svg PUBLIC "-//W3C//DTD SVG 1.1//EN" "http://www.w3.org/Graphics/SVG/1.1/DTD/svg11.dtd"><svg t="1742868906778" viewBox="0 0 1024 1024" version="1.1" xmlns="http://www.w3.org/2000/svg" p-id="3482" xmlns:xlink="http://www.w3.org/1999/xlink"><path d="M526.848 886.784c202.666667-81.066667 371.221333-327.530667 373.397333-545.92l0.853334-85.333333c0-1.408-2.090667-3.733333-3.52-3.861334l-6.656-0.64c-100.074667-9.770667-247.658667-58.517333-333.952-110.293333l-30.250667-18.133333c-5.418667-3.264-18.282667-2.602667-23.253333 1.130666-81.792 61.354667-226.581333 116.586667-328.362667 125.226667l-38.144 3.264c-1.664 0.149333-3.861333 2.517333-3.882667 4.138667l-0.853333 85.333333c-2.154667 218.197333 162.538667 464.128 364.928 545.066667l14.848 5.952 14.848-5.930667zM90.410667 255.936c0.234667-23.530667 19.264-44.202667 42.922666-46.229333l38.144-3.242667C265.28 198.485333 402.474667 146.154667 477.866667 89.6c18.858667-14.144 50.517333-15.786667 70.826666-3.605333l30.229334 18.154666c80.853333 48.512 222.336 95.253333 316.138666 104.405334l6.656 0.64c23.466667 2.282667 42.261333 23.232 42.026667 46.741333l-0.853333 85.333333c-2.346667 235.690667-181.461333 497.621333-400.213334 585.130667L512 938.666667l-30.677333-12.266667C262.613333 838.933333 87.232 577.109333 89.578667 341.290667l0.853333-85.354667z" p-id="3483"></path><path d="M356.416 496.917333a21.333333 21.333333 0 0 0-30.165333 30.165334l149.333333 149.333333a21.333333 21.333333 0 0 0 31.850667-1.92l234.666666-298.666667a21.333333 21.333333 0 1 0-33.536-26.346666L488.746667 629.248l-132.330667-132.330667z" p-id="3484"></path></svg>