<svg t="1741355886874" viewBox="0 0 1024 1024" version="1.1" xmlns="http://www.w3.org/2000/svg" p-id="7629">
	<path d="M499.712645 782.909297l-76.488784 66.198125V460.775809a47.971881 47.971881 0 0 0-17.355889-36.247697A64.201429 64.201429 0 0 0 364.039768 409.578497c-15.717575 0-30.718387 5.375718-41.879401 14.949615A47.971881 47.971881 0 0 0 304.855675 460.775809v388.331613l-76.539982-66.198125a64.406219 64.406219 0 0 0-41.623414-14.335247 64.099035 64.099035 0 0 0-41.316231 15.000812 48.023079 48.023079 0 0 0-17.355889 35.735724 47.767092 47.767092 0 0 0 16.639126 35.991711l177.552279 153.591936c5.478112 4.76135 12.031368 8.549951 19.198992 11.161014a67.170874 67.170874 0 0 0 45.360819 0c7.167624-2.559866 13.72088-6.399664 19.250189-11.161014l177.552278-153.591936a47.767092 47.767092 0 0 0 16.58793-35.991711 48.023079 48.023079 0 0 0-17.304692-35.735724 64.150232 64.150232 0 0 0-41.367428-15.000812 64.406219 64.406219 0 0 0-41.623415 14.335247h-0.102395zM879.340715 168.592749l-177.552279-153.591937a59.952053 59.952053 0 0 0-19.301387-11.109816 67.785241 67.785241 0 0 0-45.207226 0 59.900855 59.900855 0 0 0-19.301387 11.109816l-177.552278 153.591937a47.767092 47.767092 0 0 0-16.58793 35.99171 48.023079 48.023079 0 0 0 17.304692 35.786922c11.007422 9.471503 25.854643 14.847221 41.367428 14.949615 15.512786 0.153592 30.462401-5.017337 41.623415-14.335248l76.642376-66.198124v388.331612c0 13.618485 6.246072 26.622602 17.355889 36.247697 11.058619 9.573897 26.110629 14.949615 41.828204 14.949615 15.717575 0 30.718387-5.375718 41.828204-14.949615a47.971881 47.971881 0 0 0 17.407086-36.247697V174.787624l76.488785 66.198124c11.161014 9.317911 26.110629 14.488839 41.623414 14.335248 15.512786-0.102395 30.360006-5.478112 41.316231-14.949615a48.023079 48.023079 0 0 0 17.355889-35.786922 47.767092 47.767092 0 0 0-16.639126-35.99171z" p-id="7630"></path>
</svg>